# xmcd
#
# Track frame offsets:
# 150
# 11679
# 21681
# 37120
# 50521
# 62908
# 76326
# 95365
# 111549
# 130287
# 143943
# 157887
# 175292
#
# Disc length: 2738 seconds
#
#
# Revision: 0
# Processed by: cddbd v1.5.1PL2 Copyright (c) Steve Scherf et al.
# Submitted via: FreeRIP 2.942 
#
DISCID=b90ab00d
DTITLE=Chicken Bone - Hickabilly Casserole
DYEAR=1900
DGENRE=Bluegrass
TTITLE0=Chicken Bone - Goodbye Little Darlin
TTITLE1=Chicken Bone - Mammy Said To Pappy
TTITLE2=Chicken Bone - Up The Creek
TTITLE3=Chicken Bone - Daddy's Little Girl
TTITLE4=Chicken Bone - Fields Of Yesterday
TTITLE5=Chicken Bone - Tessa
TTITLE6=Chicken Bone - Bessie Lee
TTITLE7=Chicken Bone - Flat Beer and Honkey Tonk Music
TTITLE8=Chicken Bone - Front Porch
TTITLE9=Chicken Bone - Summer Days
TTITLE10=Chicken Bone - Johhny and Laura
TTITLE11=Chicken Bone - Honeysuckle Waltz
TTITLE12=Chicken Bone - What About Love?
EXTD=Wheelan and Winchester
EXTT0=
EXTT1=
EXTT2=
EXTT3=
EXTT4=
EXTT5=
EXTT6=
EXTT7=
EXTT8=
EXTT9=
EXTT10=
EXTT11=
EXTT12=
PLAYORDER=
